<svg width="219" height="94" viewBox="0 0 219 94" fill="none" xmlns="http://www.w3.org/2000/svg">
<circle cx="56.0469" cy="47" r="42" stroke="#FFC400" stroke-width="10" stroke-linecap="round"/>
<circle cx="164.609" cy="47" r="42" stroke="#FFC400" stroke-width="10" stroke-linecap="round"/>
<mask id="path-3-inside-1_31_31" fill="white">
<path d="M125.759 33.5098C125.759 28.8659 124.139 24.4122 121.255 21.1285C118.371 17.8448 114.459 16 110.38 16C106.301 16 102.389 17.8448 99.5046 21.1285C96.6204 24.4122 95 28.8659 95 33.5098L100.951 33.5098C100.951 30.6627 101.944 27.9323 103.712 25.9191C105.481 23.9059 107.879 22.7749 110.38 22.7749C112.88 22.7749 115.279 23.9059 117.047 25.9191C118.815 27.9323 119.809 30.6627 119.809 33.5098H125.759Z"/>
</mask>
<path d="M125.759 33.5098C125.759 28.8659 124.139 24.4122 121.255 21.1285C118.371 17.8448 114.459 16 110.38 16C106.301 16 102.389 17.8448 99.5046 21.1285C96.6204 24.4122 95 28.8659 95 33.5098L100.951 33.5098C100.951 30.6627 101.944 27.9323 103.712 25.9191C105.481 23.9059 107.879 22.7749 110.38 22.7749C112.88 22.7749 115.279 23.9059 117.047 25.9191C118.815 27.9323 119.809 30.6627 119.809 33.5098H125.759Z" fill="#FFC400" stroke="#FFC400" stroke-width="6" stroke-linecap="round" mask="url(#path-3-inside-1_31_31)"/>
<rect x="206.269" y="42.3922" width="12.7314" height="7.17492" rx="3.58746" fill="#FFC400"/>
<rect y="45.9195" width="12.7314" height="7.17492" rx="3.58746" fill="#FFC400"/>
<rect width="43.8526" height="6" transform="matrix(-1 0 0 1 187.853 36)" fill="#C4C4C4"/>
<rect width="25.4628" height="6" transform="matrix(-1 0 0 1 187.853 50.3498)" fill="#C4C4C4"/>
<rect x="33" y="37" width="43.8526" height="6" fill="#C4C4C4"/>
<path d="M33 51.3498H58.4628V57.3498H33V51.3498Z" fill="#C4C4C4"/>
</svg>
